# xmcd
# 
# Track frame offsets:
#     150
#     16354
#     34972
#     60768
#     78802
#     109739
#     126621
#     153561
#     172837
#     195796
#     212423
#     231117
# 
# Disc length: 3186
# 
# Revision: 0
# Processed by: cddbd v1.5.2PL0 Copyright (c) Steve Scherf et al.
# Submitted via: fre:ac v1.0.31
# 
DISCID=8b0c700c
DTITLE=Jimi Hendrix - People, Hell and Angels
DYEAR=2013
DGENRE=Blues
TTITLE0=Earth Blues
TTITLE1=Somewhere
TTITLE2=Hear My Train A'Comin'
TTITLE3=Bleeding Heart
TTITLE4=Let Me Move You
TTITLE5=Izabella
TTITLE6=Easy Blues
TTITLE7=Crash Landing
TTITLE8=Inside Out
TTITLE9=Hey Gypsy Boy
TTITLE10=Mojo Man
TTITLE11=Villanova Junction Blues
EXTD=From 1968 Recordings
EXTT0=
EXTT1=
EXTT2=
EXTT3=
EXTT4=
EXTT5=
EXTT6=
EXTT7=
EXTT8=
EXTT9=
EXTT10=
EXTT11=
PLAYORDER=
